<?xml version="1.0" encoding="utf-8"?>
<!-- Generator: Adobe Illustrator 10.0, SVG Export Plug-In . SVG Version: 3.0.0 Build 76)  -->
<!DOCTYPE svg PUBLIC "-//W3C//DTD SVG 1.0//EN"    "http://www.w3.org/TR/2001/REC-SVG-20010904/DTD/svg10.dtd" [
	<!ENTITY ns_flows "http://ns.adobe.com/Flows/1.0/">
	<!ENTITY ns_extend "http://ns.adobe.com/Extensibility/1.0/">
	<!ENTITY ns_ai "http://ns.adobe.com/AdobeIllustrator/10.0/">
	<!ENTITY ns_graphs "http://ns.adobe.com/Graphs/1.0/">
	<!ENTITY ns_vars "http://ns.adobe.com/Variables/1.0/">
	<!ENTITY ns_imrep "http://ns.adobe.com/ImageReplacement/1.0/">
	<!ENTITY ns_sfw "http://ns.adobe.com/SaveForWeb/1.0/">
	<!ENTITY ns_custom "http://ns.adobe.com/GenericCustomNamespace/1.0/">
	<!ENTITY ns_adobe_xpath "http://ns.adobe.com/XPath/1.0/">
	<!ENTITY ns_svg "http://www.w3.org/2000/svg">
	<!ENTITY ns_xlink "http://www.w3.org/1999/xlink">
]>
<svg 
	 xmlns:x="&ns_extend;" xmlns:i="&ns_ai;" xmlns:graph="&ns_graphs;" i:viewOrigin="30.3145 402.3989" i:rulerOrigin="126 186.4922" i:pageBounds="-126 605.5078 486 -186.4922"
	 xmlns="&ns_svg;" xmlns:xlink="&ns_xlink;" xmlns:a="http://ns.adobe.com/AdobeSVGViewerExtensions/3.0/"
	 width="113.576" height="146.473" viewBox="0 0 113.576 146.473" overflow="visible" enable-background="new 0 0 113.576 146.473"
	 xml:space="preserve">
	<metadata>
		<variableSets  xmlns="&ns_vars;">
			<variableSet  varSetName="binding1" locked="none">
				<variables></variables>
				<v:sampleDataSets  xmlns="&ns_custom;" xmlns:v="&ns_vars;"></v:sampleDataSets>
			</variableSet>
		</variableSets>
		<sfw  xmlns="&ns_sfw;">
			<slices></slices>
			<sliceSourceBounds  x="30.314" y="255.926" width="113.576" height="146.473" bottomLeftOrigin="true"></sliceSourceBounds>
			<optimizationSettings>
				<targetSettings  fileFormat="JPEGFormat" targetSettingsID="0">
					
						<JPEGFormat  noMatteColor="false" matteColor="#FFFFFF" optimized="true" quality="60" progressive="true" blurAmount="0" embedICCProfile="false">
						</JPEGFormat>
				</targetSettings>
			</optimizationSettings>
		</sfw>
	</metadata>
	<g id="Layer_2" i:layer="yes" i:dimmedPercent="50" i:rgbTrio="#FFFF4F004F00">
	</g>
	<g id="Layer_1" i:layer="yes" i:dimmedPercent="50" i:rgbTrio="#4F008000FFFF">
		<g>
			<path i:knockout="Off" fill="#E4E4E4" d="M57.229,132.328c-60.11-30.895-55.77-96.938-55.77-96.938c0,0,7.001-3.977,19.747-7.309
				l74.998,0.811C107.075,32.024,113,35.39,113,35.39S117.341,101.434,57.229,132.328"/>
			<path i:knockout="Off" fill="#00A0E7" d="M13.503,43.097c0.354,6.118,1.486,15.542,4.845,26.021
				c3.342,10.424,8.215,19.843,14.484,27.996c6.569,8.543,14.767,15.779,24.397,21.543c9.631-5.764,17.829-13.001,24.397-21.543
				c6.269-8.153,11.142-17.571,14.484-27.996c3.359-10.479,4.491-19.902,4.846-26.02c-7.78-2.977-23.046-7.521-43.728-7.521
				S21.282,40.12,13.503,43.097"/>
			<path i:knockout="Off" fill="#FFFFFF" d="M106.325,39.64c-6.935-3.034-24.259-9.295-49.096-9.295
				c-24.846,0-42.173,6.266-49.094,9.294c0.104,5.81,0.918,17.623,5.231,31.076c0.595,1.856,1.241,3.68,1.928,5.475
				c-0.513,5.475-0.101,9.67-0.07,9.957l0.045,0.438l5.105,11.032l32.141,30.459l13.08-2.056l11.212-10.278l0.411-0.462
				c9.42-1.191,16.708-9.226,16.708-18.969c0-2.302-0.411-4.505-1.156-6.549c3.368-5.911,6.155-12.279,8.324-19.046
				C105.407,57.26,106.221,45.445,106.325,39.64 M100.295,50.173c-1.829-4.413-5.565-8.042-10.736-10.66
				c4.726,1.206,8.562,2.499,11.397,3.583C100.839,45.12,100.634,47.51,100.295,50.173 M69.006,61.678
				c4.241,2.725,5.849,5.771,6.599,8.365c0.758,2.617,0.849,7.216,0.849,7.216c-0.546-0.046-1.098-0.076-1.656-0.076
				c-4.901,0-9.37,1.845-12.755,4.877C59.937,72.599,65.743,65.045,69.006,61.678 M77.442,77.383c0,0,0.849-2.127,1.472-4.276
				C79.536,70.958,80.128,68,80.128,68c0.654,3.706,0.734,8.534,0.469,10.075C79.907,77.881,78.162,77.499,77.442,77.383
				 M13.503,43.096c7.73-2.958,22.853-7.459,43.335-7.517c-23.046,3.568-35.174,19.094-38.903,28.74
				c-0.201,0.519-0.385,1.041-0.56,1.565C14.767,56.715,13.82,48.578,13.503,43.096 M87.011,81.591
				c3.039-2.731,5.497-5.332,7.467-7.798c-1.381,3.672-2.959,7.207-4.733,10.591C88.93,83.363,88.015,82.425,87.011,81.591"/>
			<path i:knockout="Off" fill="#001A3A" d="M18.754,85.782c0,0-1.121-10.838,2.492-20.181c3.613-9.344,17.16-27.22,45.563-27.22
				S111.75,55.759,83.098,80.3c0,0,3.551-12.644-3.986-21.676c0,0-0.187,5.357-1.619,9.343c0,0-1.744-6.104-8.658-10.962
				c0,0-15.198,12.021-9.53,28.403c0,0-5.045-0.748-7.848-7.413c0,0-1.246,6.541,6.665,14.825l28.341,10.028L75.25,114.683
				l-11.087,9.468l-11.087,1.245L22.429,95.872L18.754,85.782z"/>
			<path i:knockout="Off" fill="#FFFFFF" d="M91.961,50.769c0.345,1.503,0.685,3.458,0.729,5.457c0,0-2.055-5.139-8.969-6.727
				c0,0,5.419,3.55,4.671,11.025c0,0-3.737-11.772-18.219-13.361l3.083,4.298c0,0-19.714-12.52-41.203,4.392
				c31.673-17.659,43.913,2.896,43.913,2.896c0.841-3.27-0.374-7.661-0.374-7.661c14.202,7.755,11.492,19.34,11.492,19.34
				c5.045-3.737,3.177-13.361,3.177-13.361c3.27,2.149,2.429,7.381,2.429,7.381C94.726,61.181,95.296,55.54,91.961,50.769"/>
			<path i:knockout="Off" fill="#00A0E7" d="M73.256,51.46l-3.083-4.298c14.482,1.588,18.219,13.361,18.219,13.361
				c0.748-7.475-4.671-11.025-4.671-11.025c6.914,1.588,8.969,6.727,8.969,6.727c-0.044-1.999-0.384-3.954-0.729-5.457
				c-3.246-4.645-10.191-8.464-23.097-8.464c-26.161,0-36.812,13.548-36.812,13.548C53.542,38.94,73.256,51.46,73.256,51.46"/>
			<path i:knockout="Off" fill="#00A0E7" d="M34.949,74.912c-0.374,13.641,13.392,24.697,13.392,24.697s-24.097-21.213-3.417-45.007
				C44.924,54.602,35.323,61.271,34.949,74.912"/>
			<path i:knockout="Off" fill="#00A0E7" d="M53.355,72.754l-3.025-2.012c0,0,1.905,5.384,5.735,9.402
				c0,0-5.419-15.136,8.875-24.386C51.887,62.661,53.355,72.754,53.355,72.754"/>
			<path i:knockout="Off" fill="#006EAB" d="M68.024,114.714c0,0-20.555-13.081-20.835-29.992c-0.108-6.499,1.33-10.956,3.141-13.98
				l3.025,2.012c0,0-1.468-10.093,11.585-16.996c0,0-12.488-0.374-19.713,17.565c0,0-4.734,12.457,3.114,26.285
				c0,0-13.766-11.056-13.392-24.697s9.975-20.31,9.975-20.31s-13.339,5.081-14.833,26.29c0,0-4.485-8.223,0.467-18.313
				c0,0-12.987,18.219,5.326,38.276c0,0-5.606-9.125-3.644-16.132C32.24,84.723,34.202,105.932,68.024,114.714"/>
			<path i:knockout="Off" fill="#001A3A" d="M57.229,30.071c-35.054,0-55.77,4.945-55.77,4.945s-4.34,66.044,55.77,96.939
				C117.341,101.06,113,35.016,113,35.016S92.284,30.071,57.229,30.071 M101.093,70.341c-3.527,11-8.681,20.956-15.319,29.588
				c-7.585,9.864-17.177,18.059-28.545,24.396c-11.368-6.337-20.959-14.532-28.544-24.396c-6.638-8.633-11.792-18.588-15.318-29.588
				C9.053,56.888,8.239,45.076,8.135,39.266c6.921-3.028,24.248-9.295,49.094-9.295c24.837,0,42.161,6.262,49.096,9.296
				C106.221,45.071,105.406,56.886,101.093,70.341"/>
			<path i:knockout="Off" fill="#001A3A" d="M57.229,30.071c-35.054,0-55.77,4.945-55.77,4.945s-4.34,66.044,55.77,96.939
				C117.341,101.06,113,35.016,113,35.016S92.284,30.071,57.229,30.071 M101.093,70.341c-3.527,11-8.681,20.956-15.319,29.588
				c-7.585,9.864-17.177,18.059-28.545,24.396c-11.368-6.337-20.959-14.532-28.544-24.396c-6.638-8.633-11.792-18.588-15.318-29.588
				C9.053,56.888,8.239,45.076,8.135,39.266c6.921-3.028,24.248-9.295,49.094-9.295c24.837,0,42.161,6.262,49.096,9.296
				C106.221,45.071,105.406,56.886,101.093,70.341"/>
			<path i:knockout="Off" fill="#001A3A" d="M57.229,23.244c-35.054,0-55.77,11.772-55.77,11.772c0,0-4.34,66.044,55.77,96.939
				C117.341,101.06,113,35.016,113,35.016S92.284,23.244,57.229,23.244 M101.093,70.341c-3.527,11-8.681,20.956-15.319,29.588
				c-7.585,9.864-17.177,18.059-28.545,24.396c-11.368-6.337-20.959-14.532-28.544-24.396c-6.638-8.633-11.792-18.588-15.318-29.588
				C9.053,56.888,8.239,45.076,8.135,39.266c6.921-3.028,24.248-9.295,49.094-9.295c24.837,0,42.161,6.262,49.096,9.296
				C106.221,45.071,105.406,56.886,101.093,70.341"/>
			<path i:knockout="Off" fill="#001A3A" d="M91.725,96.31c0,9.349-7.578,16.927-16.927,16.927c-9.349,0-16.928-7.579-16.928-16.927
				s7.579-16.928,16.928-16.928C84.147,79.382,91.725,86.961,91.725,96.31"/>
			<path i:knockout="Off" fill="#FFFFFF" d="M89.902,96.31c0,8.342-6.762,15.104-15.104,15.104c-8.342,0-15.105-6.763-15.105-15.104
				c0-8.342,6.763-15.105,15.105-15.105C83.14,81.205,89.902,87.968,89.902,96.31"/>
			<path i:knockout="Off" fill="#001A3A" d="M89.901,96.272l-0.648-0.112c-0.227-0.415-0.562-0.979-1.013-1.616
				c-0.768-1.081-1.876-2.366-3.352-3.463L84.03,86.24l1.177-0.87c-0.184-0.175-0.372-0.345-0.564-0.512l-1.232,0.911l-5.038-1.233
				c-1.123-1.518-2.229-2.604-3.064-3.317c-0.169-0.006-0.339-0.013-0.51-0.013c-0.227,0-0.453,0.007-0.677,0.017
				c0.758,0.571,2.104,1.717,3.498,3.555l-2.305,3.405c-0.703,0.067-1.635,0.175-2.68,0.349c-1.481,0.249-3.179,0.628-4.759,1.209
				l-2.44-2.001c0.183-0.486,0.438-1.099,0.779-1.762c0.607-1.182,1.493-2.512,2.693-3.58c-0.672,0.286-1.32,0.618-1.938,0.993
				c-0.62,0.804-1.114,1.636-1.495,2.395c-0.362,0.72-0.625,1.373-0.805,1.873c-1.883,0.913-2.931,2.398-3.357,3.133l-0.579,0.013
				c-0.096,0.249-0.188,0.499-0.271,0.754l0.591-0.013c-0.203,2.264,0.368,3.974,0.728,4.791c-0.274,0.978-0.605,2.518-0.606,4.294
				c0,0.847,0.082,1.747,0.276,2.662l-0.042,0.007c1.173,2.243,2.89,4.156,4.98,5.56l0.027-0.459
				c0.197-0.028,0.399-0.059,0.604-0.092c1.659-0.273,3.509-0.724,4.553-0.993c1.917,1.299,4.275,1.398,5.217,1.378
				c0.087,0.212,0.188,0.446,0.308,0.699c0.253,0.531,0.577,1.124,0.975,1.665c0.268-0.06,0.532-0.126,0.793-0.199
				c-0.438-0.536-0.814-1.197-1.092-1.786c-0.091-0.193-0.172-0.376-0.243-0.546c1.431-0.769,2.746-2.963,3.206-3.792
				c0.593-0.102,1.343-0.244,2.151-0.427c0.938-0.212,1.952-0.481,2.892-0.813c0.423-0.148,0.825-0.311,1.205-0.486l0.778,1.059
				c1.359-2.267,2.142-4.919,2.142-7.754C89.902,96.297,89.902,96.285,89.901,96.272 M68.748,107.214
				c-0.927,0.198-1.909,0.38-2.75,0.484c-1.469-1.184-2.98-3-3.703-3.912l0.04-0.011c-0.3-1.072-0.413-2.145-0.413-3.147
				c0-1.431,0.23-2.718,0.46-3.644c0.013-0.054,0.026-0.101,0.039-0.152l3.429-0.328c0.378,0.565,0.891,1.292,1.5,2.057
				c0.666,0.836,1.445,1.716,2.291,2.477c0.421,0.379,0.858,0.729,1.309,1.028l0.204,4.582
				C70.518,106.811,69.659,107.019,68.748,107.214 M76.915,100.285l-5.521,1.179c-0.423-0.279-0.846-0.612-1.254-0.98
				c-1.205-1.083-2.301-2.457-3.09-3.557c-0.243-0.339-0.453-0.646-0.634-0.917l1.662-5.547c1.53-0.568,3.211-0.951,4.678-1.194
				c1.037-0.172,1.961-0.279,2.653-0.344l3.974,4.271L76.915,100.285z M87.134,102.099c-0.465,0.249-1.014,0.481-1.603,0.688
				c-1.353,0.476-2.906,0.829-4.115,1.061c-0.308,0.06-0.593,0.11-0.848,0.154l-2.93-3.523l2.496-7.168l4.495-1.49
				c1.301,1.005,2.3,2.167,3,3.155c0.444,0.625,0.77,1.178,0.984,1.573c0.042,0.079,0.078,0.146,0.112,0.211
				C88.525,97.914,88.029,100.311,87.134,102.099"/>
			<path i:knockout="Off" fill="#FFFFFF" d="M78.372,84.535l5.039,1.233l1.231-0.911c-2.523-2.171-5.771-3.521-9.333-3.64
				C76.144,81.931,77.25,83.018,78.372,84.535 M83.418,84.833l-0.17,0.125l-4.438-1.086c-0.449-0.592-0.919-1.152-1.408-1.678
				C79.577,82.599,81.645,83.501,83.418,84.833"/>
			<path i:knockout="Off" fill="#FFFFFF" d="M85.207,85.37l-1.177,0.87l0.858,4.841c1.476,1.097,2.583,2.382,3.351,3.463
				c0.452,0.637,0.787,1.202,1.013,1.616l0.649,0.112C89.891,91.981,88.09,88.114,85.207,85.37 M88.85,94.112
				c-0.955-1.343-2.055-2.502-3.276-3.45l-0.727-4.097l0.289-0.213c2.142,2.218,3.485,4.996,3.89,8.011
				C88.967,94.28,88.909,94.196,88.85,94.112"/>
			<path i:knockout="Off" fill="#FFFFFF" d="M65.435,87.739l2.44,2.001c1.58-0.581,3.277-0.96,4.759-1.209
				c1.045-0.173,1.978-0.282,2.68-0.349l2.305-3.405c-1.394-1.838-2.74-2.984-3.498-3.555c-1.843,0.081-3.6,0.492-5.213,1.175
				c-1.202,1.068-2.086,2.398-2.694,3.58C65.872,86.64,65.617,87.253,65.435,87.739 M66.878,86.32
				c0.471-0.917,1.271-2.218,2.435-3.282c1.453-0.602,2.99-0.956,4.571-1.055c0.647,0.51,1.697,1.436,2.811,2.825l-1.804,2.666
				c-0.803,0.083-1.602,0.191-2.38,0.32c-1.665,0.279-3.172,0.648-4.489,1.1l-1.693-1.388C66.496,87.101,66.68,86.704,66.878,86.32"
				/>
			<path i:knockout="Off" fill="#FFFFFF" d="M72.756,89.269c-1.467,0.243-3.148,0.626-4.679,1.194l-1.661,5.547
				c0.18,0.271,0.39,0.578,0.632,0.917c0.79,1.1,1.886,2.474,3.091,3.557c0.409,0.369,0.831,0.702,1.254,0.98l5.521-1.179
				l2.467-7.089l-3.974-4.271C74.718,88.99,73.792,89.097,72.756,89.269 M75.114,89.705l3.415,3.67l-2.182,6.267l-4.794,1.024
				c-0.299-0.213-0.604-0.46-0.912-0.738c-1.204-1.082-2.287-2.467-2.984-3.438c-0.154-0.215-0.295-0.417-0.423-0.605l1.452-4.847"
				/>
			<path i:knockout="Off" fill="#FFFFFF" d="M85.778,103.492c-0.939,0.332-1.955,0.601-2.893,0.813
				c-0.809,0.183-1.559,0.325-2.151,0.427c-0.459,0.829-1.775,3.023-3.205,3.792c0.071,0.17,0.152,0.354,0.243,0.546
				c0.278,0.589,0.654,1.25,1.092,1.786c3.762-1.049,6.933-3.516,8.896-6.792l-0.777-1.059
				C86.603,103.181,86.2,103.343,85.778,103.492 M79.151,109.991c-0.239-0.347-0.473-0.756-0.68-1.193
				c1.19-0.91,2.207-2.475,2.739-3.391c0.628-0.113,1.247-0.239,1.841-0.374c1.118-0.254,2.119-0.535,2.976-0.836
				c0.242-0.085,0.479-0.176,0.707-0.269l0.125,0.171C85.041,106.912,82.333,108.981,79.151,109.991"/>
			<path i:knockout="Off" fill="#FFFFFF" d="M71.153,106.648l-0.204-4.582c-0.451-0.299-0.887-0.649-1.309-1.028
				c-0.846-0.761-1.625-1.64-2.291-2.477c-0.609-0.765-1.122-1.492-1.501-2.057l-3.428,0.328c-0.013,0.051-0.026,0.098-0.039,0.152
				c-0.23,0.925-0.46,2.212-0.46,3.644c0,1.002,0.113,2.075,0.413,3.147l-0.04,0.011c0.723,0.912,2.234,2.728,3.704,3.912
				c0.841-0.104,1.823-0.286,2.75-0.484C69.659,107.019,70.518,106.81,71.153,106.648 M66.224,106.914
				c-1.228-1.043-2.458-2.489-3.185-3.393c-0.246-0.897-0.371-1.87-0.371-2.893c0-1.21,0.177-2.307,0.353-3.102l2.458-0.235
				c0.417,0.604,0.848,1.188,1.286,1.737c0.803,1.006,1.602,1.87,2.376,2.567c0.363,0.327,0.725,0.62,1.078,0.875l0.161,3.602
				c-0.622,0.152-1.221,0.29-1.788,0.411C67.711,106.672,66.9,106.819,66.224,106.914"/>
			<path i:knockout="Off" fill="#FFFFFF" d="M87.63,94.977c-0.701-0.988-1.7-2.15-3.001-3.155l-4.496,1.49l-2.495,7.168l2.929,3.522
				c0.255-0.044,0.541-0.094,0.849-0.154c1.208-0.231,2.762-0.584,4.114-1.061c0.589-0.207,1.138-0.439,1.603-0.688
				c0.895-1.789,1.391-4.187,1.592-5.338c-0.034-0.065-0.069-0.132-0.112-0.211C88.399,96.155,88.073,95.602,87.63,94.977
				 M86.57,101.549c-0.372,0.185-0.803,0.363-1.286,0.533c-1.365,0.48-2.933,0.826-4.008,1.031c-0.142,0.028-0.278,0.053-0.41,0.077
				l-2.382-2.864l2.235-6.421l3.761-1.247c1.164,0.959,2.016,2.011,2.54,2.752c0.339,0.477,0.659,0.985,0.925,1.474
				C87.752,97.922,87.31,99.968,86.57,101.549"/>
			<path i:knockout="Off" fill="#FFFFFF" d="M76.789,108.691c-0.942,0.021-3.3-0.079-5.217-1.378
				c-1.044,0.269-2.895,0.72-4.553,0.993c-0.205,0.034-0.407,0.064-0.604,0.092l-0.027,0.459c2.404,1.614,5.297,2.557,8.411,2.557
				c1.125,0,2.219-0.127,3.273-0.36c-0.398-0.541-0.721-1.134-0.975-1.665C76.977,109.138,76.876,108.903,76.789,108.691
				 M74.798,110.667c-2.428,0-4.786-0.604-6.89-1.758c1.255-0.236,2.542-0.539,3.533-0.791c1.723,1.054,3.667,1.29,4.854,1.32
				c0.039,0.088,0.082,0.18,0.125,0.273c0.139,0.288,0.278,0.557,0.42,0.809C76.161,110.618,75.478,110.667,74.798,110.667"/>
			<path i:knockout="Off" fill="#FFFFFF" d="M61.051,91.544l-0.591,0.013c-0.496,1.495-0.768,3.091-0.768,4.753
				c0,2.522,0.622,4.896,1.714,6.987l0.043-0.007c-0.196-0.915-0.277-1.814-0.277-2.662c0.001-1.776,0.332-3.316,0.606-4.294
				C61.419,95.518,60.849,93.808,61.051,91.544 M60.588,98.384c-0.099-0.681-0.148-1.374-0.148-2.074
				c0-0.493,0.025-0.984,0.076-1.471c0.14,0.634,0.317,1.156,0.475,1.548C60.846,96.933,60.697,97.611,60.588,98.384"/>
			<path i:knockout="Off" fill="#FFFFFF" d="M64.668,87.658c0.18-0.5,0.442-1.153,0.805-1.873c0.381-0.759,0.875-1.591,1.495-2.395
				c-2.813,1.709-5.021,4.313-6.236,7.413l0.579-0.013C61.738,90.056,62.786,88.571,64.668,87.658 M64.318,86.503
				c-0.087,0.206-0.17,0.413-0.249,0.621c-0.197,0.105-0.385,0.215-0.564,0.329C63.762,87.125,64.033,86.809,64.318,86.503"/>
		</g>
		<path i:knockout="Off" fill="none" stroke="#FFFFFF" stroke-width="0.7587" d="M74.474,112.081
			c-0.276,0.246-0.553,0.491-0.832,0.734c-4.958,4.328-10.44,8.17-16.414,11.499c-11.368-6.336-20.959-14.531-28.544-24.396
			c-6.638-8.633-11.792-18.588-15.318-29.588C9.053,56.878,8.239,45.065,8.135,39.254c6.921-3.028,24.248-9.294,49.094-9.294
			c24.837,0,42.161,6.262,49.096,9.296c-0.104,5.805-0.918,17.62-5.231,31.074 M101.093,70.33
			c-2.461,7.675-5.714,14.842-9.71,21.406"/>
		<g i:knockout="Off">
			<path i:knockout="Off" d="M6.496,18.088c-2.698,0-4.747-0.575-6.496-2.349l2.249-2.249c1.124,1.125,2.648,1.499,4.272,1.499
				c2.073,0,3.173-0.799,3.173-2.224c0-0.6-0.175-1.099-0.55-1.474c-0.35-0.325-0.7-0.475-1.599-0.6l-2.124-0.325
				c-1.574-0.225-2.648-0.699-3.448-1.474C1.124,8.07,0.7,6.896,0.7,5.396C0.7,2.224,3.048,0,6.896,0c2.448,0,4.222,0.6,5.746,2.074
				l-2.198,2.173c-1.1-1.074-2.474-1.224-3.648-1.224c-1.849,0-2.723,1.024-2.723,2.249c0,0.475,0.125,0.924,0.5,1.274
				c0.35,0.325,0.874,0.575,1.624,0.674L8.32,7.545c1.624,0.225,2.623,0.649,3.397,1.399c0.95,0.875,1.374,2.148,1.374,3.748
				C13.091,16.14,10.243,18.088,6.496,18.088z"/>
			<path i:knockout="Off" d="M25.233,17.938l-1.049-3.148h-6.321l-1.074,3.148h-3.623L19.637,0.15h2.723l6.496,17.789H25.233z
				 M21.086,5.396l-2.249,6.471h4.422L21.086,5.396z"/>
			<path i:knockout="Off" d="M40.323,17.938L33.278,7.021v10.918h-3.473V0.15h3.098l7.045,10.893V0.15h3.473v17.789H40.323z"/>
			<path i:knockout="Off" d="M62.659,15.34c-1.274,1.773-2.948,2.598-5.372,2.598h-6.421V0.15h6.421
				c2.423,0,4.097,0.825,5.372,2.598c1.099,1.524,1.124,3.348,1.124,6.296C63.783,11.992,63.758,13.816,62.659,15.34z M59.586,4.347
				c-0.575-0.725-1.424-1.099-2.598-1.099h-2.648V14.84h2.648c1.174,0,2.023-0.375,2.598-1.099c0.649-0.774,0.725-1.899,0.725-4.697
				C60.311,6.246,60.235,5.122,59.586,4.347z"/>
			<path i:knockout="Off" d="M66.082,17.938V0.15h3.473v17.789H66.082z"/>
			<path i:knockout="Off" d="M72.453,17.938V0.15H84.17v3.098h-8.245V7.42h7.021v3.098h-7.021v4.322h8.245v3.098H72.453z"/>
			<path i:knockout="Off" d="M97.287,16.064c-1.474,1.549-3.123,2.024-5.022,2.024c-2.023,0-3.522-0.675-4.747-1.874
				c-1.773-1.773-1.799-3.772-1.799-7.17c0-3.398,0.025-5.397,1.799-7.17C88.742,0.675,90.241,0,92.265,0
				c4.147,0,6.221,2.698,6.696,5.696h-3.498c-0.399-1.699-1.424-2.598-3.198-2.598c-0.949,0-1.699,0.375-2.224,0.949
				c-0.649,0.75-0.849,1.599-0.849,4.997c0,3.397,0.2,4.272,0.849,5.021c0.525,0.575,1.274,0.924,2.224,0.924
				c1.074,0,1.924-0.375,2.474-0.999c0.574-0.65,0.799-1.449,0.799-2.374v-0.65h-3.273V8.045h6.721v2.598
				C98.985,13.216,98.585,14.715,97.287,16.064z"/>
			<path i:knockout="Off" d="M111.752,16.214c-1.199,1.199-2.698,1.874-4.747,1.874c-2.048,0-3.572-0.675-4.771-1.874
				c-1.774-1.773-1.799-3.772-1.799-7.17c0-3.398,0.025-5.397,1.799-7.17C103.433,0.675,104.957,0,107.005,0
				c2.049,0,3.548,0.675,4.747,1.874c1.774,1.773,1.824,3.772,1.824,7.17C113.576,12.442,113.526,14.441,111.752,16.214z
				 M109.229,4.047c-0.5-0.575-1.274-0.949-2.224-0.949c-0.949,0-1.724,0.375-2.249,0.949c-0.649,0.75-0.849,1.599-0.849,4.997
				c0,3.397,0.2,4.222,0.849,4.972c0.525,0.575,1.299,0.974,2.249,0.974c0.95,0,1.724-0.399,2.224-0.974
				c0.65-0.75,0.875-1.574,0.875-4.972C110.103,5.646,109.878,4.797,109.229,4.047z"/>
		</g>
		<g i:knockout="Off">
			<path i:knockout="Off" d="M7.96,146.473c-1.311,0-2.306-0.279-3.156-1.141l1.092-1.092c0.546,0.546,1.287,0.729,2.076,0.729
				c1.007,0,1.542-0.389,1.542-1.081c0-0.292-0.085-0.534-0.267-0.716c-0.17-0.158-0.34-0.23-0.777-0.291l-1.032-0.158
				c-0.765-0.109-1.287-0.34-1.675-0.716c-0.413-0.401-0.619-0.971-0.619-1.7c0-1.542,1.141-2.622,3.01-2.622
				c1.189,0,2.051,0.291,2.792,1.007l-1.068,1.056c-0.534-0.522-1.202-0.595-1.772-0.595c-0.898,0-1.323,0.498-1.323,1.092
				c0,0.23,0.061,0.449,0.243,0.619c0.17,0.158,0.425,0.279,0.789,0.328l1.032,0.158c0.789,0.109,1.274,0.316,1.651,0.68
				c0.461,0.425,0.667,1.044,0.667,1.821C11.165,145.526,9.781,146.473,7.96,146.473z"/>
			<path i:knockout="Off" d="M17.962,145.563c-0.583,0.583-1.311,0.91-2.306,0.91c-0.996,0-1.736-0.328-2.318-0.91
				c-0.862-0.862-0.874-1.833-0.874-3.484s0.012-2.622,0.874-3.484c0.583-0.583,1.323-0.91,2.318-0.91
				c0.995,0,1.724,0.328,2.306,0.91c0.862,0.862,0.886,1.833,0.886,3.484S18.824,144.701,17.962,145.563z M16.736,139.651
				c-0.243-0.279-0.619-0.461-1.08-0.461s-0.837,0.182-1.093,0.461c-0.315,0.364-0.413,0.777-0.413,2.428s0.097,2.051,0.413,2.416
				c0.255,0.279,0.631,0.474,1.093,0.474s0.837-0.194,1.08-0.474c0.316-0.364,0.425-0.765,0.425-2.416
				S17.052,140.016,16.736,139.651z"/>
			<path i:knockout="Off" d="M23.352,146.473c-0.996,0-1.724-0.328-2.318-0.91c-0.862-0.862-0.874-1.833-0.874-3.484
				s0.012-2.622,0.874-3.484c0.595-0.583,1.323-0.91,2.318-0.91c1.614,0,2.853,0.922,3.168,2.731h-1.724
				c-0.17-0.704-0.607-1.226-1.444-1.226c-0.461,0-0.837,0.17-1.081,0.449c-0.315,0.364-0.425,0.789-0.425,2.44
				s0.109,2.076,0.425,2.44c0.243,0.279,0.619,0.449,1.081,0.449c0.837,0,1.287-0.522,1.457-1.226h1.711
				C26.204,145.551,24.954,146.473,23.352,146.473z"/>
			<path i:knockout="Off" d="M30.756,146.473c-0.995,0-1.724-0.328-2.318-0.91c-0.862-0.862-0.874-1.833-0.874-3.484
				s0.012-2.622,0.874-3.484c0.595-0.583,1.323-0.91,2.318-0.91c1.615,0,2.853,0.922,3.168,2.731h-1.724
				c-0.17-0.704-0.607-1.226-1.445-1.226c-0.461,0-0.837,0.17-1.08,0.449c-0.315,0.364-0.425,0.789-0.425,2.44
				s0.109,2.076,0.425,2.44c0.243,0.279,0.619,0.449,1.08,0.449c0.838,0,1.287-0.522,1.457-1.226h1.711
				C33.608,145.551,32.358,146.473,30.756,146.473z"/>
			<path i:knockout="Off" d="M35.381,146.4v-8.643h5.693v1.505h-4.006v2.027h3.411v1.505h-3.411v2.1h4.006v1.505H35.381z"/>
			<path i:knockout="Off" d="M47.313,146.4l-1.688-3.447h-1.214v3.447h-1.687v-8.643h3.387c1.76,0,2.804,1.202,2.804,2.646
				c0,1.214-0.74,1.967-1.578,2.27l1.93,3.727H47.313z M46.002,139.263h-1.59v2.282h1.59c0.74,0,1.226-0.473,1.226-1.141
				C47.228,139.736,46.742,139.263,46.002,139.263z"/>
			<path i:knockout="Off" d="M56.781,139.263v7.138h-1.688v-7.138h-2.257v-1.505h6.203v1.505H56.781z"/>
			<path i:knockout="Off" d="M64.999,146.4l-1.688-3.447h-1.214v3.447H60.41v-8.643h3.387c1.76,0,2.804,1.202,2.804,2.646
				c0,1.214-0.74,1.967-1.578,2.27l1.93,3.727H64.999z M63.688,139.263h-1.59v2.282h1.59c0.741,0,1.226-0.473,1.226-1.141
				C64.914,139.736,64.428,139.263,63.688,139.263z"/>
			<path i:knockout="Off" d="M73.265,146.4l-0.51-1.529h-3.071l-0.522,1.529h-1.76l3.144-8.643h1.323l3.156,8.643H73.265z
				 M71.25,140.307l-1.093,3.144h2.148L71.25,140.307z"/>
			<path i:knockout="Off" d="M76.093,146.4v-8.643h1.688v8.643H76.093z"/>
			<path i:knockout="Off" d="M84.905,146.4l-3.423-5.305v5.305h-1.688v-8.643H81.3l3.423,5.292v-5.292h1.688v8.643H84.905z"/>
			<path i:knockout="Off" d="M88.425,146.4v-8.643h5.693v1.505h-4.006v2.027h3.411v1.505h-3.411v2.1h4.006v1.505H88.425z"/>
			<path i:knockout="Off" d="M100.357,146.4l-1.687-3.447h-1.214v3.447h-1.688v-8.643h3.387c1.76,0,2.804,1.202,2.804,2.646
				c0,1.214-0.741,1.967-1.578,2.27l1.93,3.727H100.357z M99.046,139.263h-1.59v2.282h1.59c0.741,0,1.226-0.473,1.226-1.141
				C100.272,139.736,99.787,139.263,99.046,139.263z"/>
			<path i:knockout="Off" d="M106.087,146.473c-1.311,0-2.307-0.279-3.156-1.141l1.093-1.092c0.546,0.546,1.287,0.729,2.076,0.729
				c1.007,0,1.542-0.389,1.542-1.081c0-0.292-0.085-0.534-0.267-0.716c-0.17-0.158-0.34-0.23-0.777-0.291l-1.032-0.158
				c-0.765-0.109-1.287-0.34-1.675-0.716c-0.413-0.401-0.619-0.971-0.619-1.7c0-1.542,1.141-2.622,3.011-2.622
				c1.189,0,2.051,0.291,2.792,1.007l-1.068,1.056c-0.534-0.522-1.202-0.595-1.772-0.595c-0.898,0-1.323,0.498-1.323,1.092
				c0,0.23,0.061,0.449,0.243,0.619c0.17,0.158,0.425,0.279,0.789,0.328l1.032,0.158c0.789,0.109,1.274,0.316,1.651,0.68
				c0.461,0.425,0.667,1.044,0.667,1.821C109.292,145.526,107.908,146.473,106.087,146.473z"/>
		</g>
	</g>
</svg>
